<?xml version="1.0" standalone="no"?>
<!DOCTYPE svg PUBLIC "-//W3C//DTD SVG 20010904//EN"
 "http://www.w3.org/TR/2001/REC-SVG-20010904/DTD/svg10.dtd">
<svg version="1.0" xmlns="http://www.w3.org/2000/svg"
 width="220.000000pt" height="220.000000pt" viewBox="0 0 220.000000 220.000000"
 preserveAspectRatio="xMidYMid meet">
<metadata>
Created by potrace 1.11, written by Peter Selinger 2001-2013
</metadata>
<g transform="translate(0.000000,220.000000) scale(0.100000,-0.100000)"
fill="#000000" stroke="none">
<path d="M625 2164 c-48 -8 -127 -35 -163 -56 -31 -19 -39 -20 -110 -8 -42 7
-98 20 -125 30 l-47 18 0 -31 c0 -51 18 -102 54 -155 32 -48 32 -50 15 -73
-31 -44 -59 -145 -60 -221 -1 -87 14 -153 52 -230 16 -32 29 -63 29 -71 0 -7
-11 -42 -25 -77 -24 -60 -66 -236 -80 -330 -16 -107 -13 -305 6 -410 33 -189
91 -294 211 -385 273 -207 694 -198 1073 23 98 57 185 140 185 176 0 36 -26
34 -159 -14 -123 -44 -273 -86 -340 -95 -42 -6 -43 -6 -37 17 4 13 10 50 13
84 4 48 1 68 -15 100 -35 67 -103 113 -199 134 -26 6 -58 12 -70 15 -16 4 -24
15 -30 43 -19 99 12 194 81 241 69 47 284 165 416 229 184 89 293 167 313 225
12 34 -51 41 -178 21 -21 -4 -102 -26 -179 -51 -166 -52 -207 -62 -289 -68
-93 -7 -109 2 -50 30 101 47 189 149 229 264 19 57 22 84 21 190 -2 121 -2
123 23 141 34 24 124 49 185 51 28 1 107 -2 177 -6 110 -7 131 -6 153 9 14 9
25 23 25 31 0 17 -44 52 -90 72 -115 48 -392 73 -519 47 l-64 -13 -71 34 c-39
19 -98 41 -130 50 -64 16 -183 26 -231 19z"/>
<path d="M1923 1862 c-37 -6 -26 -18 12 -14 30 4 37 0 54 -29 38 -61 22 -122
-39 -154 -59 -31 -115 -9 -126 49 -8 47 2 72 35 86 46 18 74 9 93 -30 17 -33
18 -33 18 -9 0 69 -96 95 -151 40 -21 -22 -29 -39 -29 -66 0 -43 22 -90 49
-105 55 -29 169 7 191 61 17 41 7 115 -20 144 -23 24 -50 33 -87 27z"/>
</g>
</svg>
